<svg xmlns="http://www.w3.org/2000/svg" xmlns:svg="http://www.w3.org/2000/svg" id="svg4489" width="250" height="253.24" version="1.1" viewBox="0 0 66.146 67.003"><metadata id="metadata4486"/><g id="layer1" display="inline" transform="translate(-4.4719998e-7,-229.99692)"><g id="g4412" transform="matrix(0.5262532,0,0,0.5262532,-35.020045,168.72526)"><path id="path4408" fill="#f49700" d="m 161.646,204.169 c -1.888,0.558 -3.391,0.766 -5.365,0.766 -16.171,0 -39.915,-56.509 -39.915,-75.317 0,-6.922 1.638,-9.233 3.951,-11.216 -19.792,2.311 -43.539,9.572 -51.134,18.805 -1.641,2.314 -2.637,5.938 -2.637,10.56 0,29.362 31.339,95.984 53.445,95.984 10.226,-0.001 27.467,-16.813 41.655,-39.582"/><path id="path4410" fill="#f49700" d="m 151.323,116.43 c 20.449,0 40.915,3.298 40.915,14.841 0,23.42 -14.854,51.801 -22.433,51.801 -13.527,0 -30.352,-37.614 -30.352,-56.422 0,-8.576 3.298,-10.22 11.87,-10.22"/></g></g></svg>