<svg xmlns="http://www.w3.org/2000/svg" xmlns:svg="http://www.w3.org/2000/svg" xmlns:xlink="http://www.w3.org/1999/xlink" id="svg2" width="512" height="512" version="1.0"><metadata id="metadata371"/><defs id="defs4"><linearGradient id="linearGradient4328"><stop id="stop4330" offset="0" stop-color="#fab434" stop-opacity="1"/><stop id="stop4332" offset="1" stop-color="#fb9143" stop-opacity="1"/></linearGradient><linearGradient id="linearGradient3919"><stop id="stop3921" offset="0" stop-color="#e4e4e4" stop-opacity="1"/><stop id="stop3927" offset="1" stop-color="#fff" stop-opacity="1"/></linearGradient><linearGradient id="linearGradient4689"><stop id="stop4691" offset="0" stop-color="#5a9fd4" stop-opacity="1"/><stop id="stop4693" offset="1" stop-color="#306998" stop-opacity="1"/></linearGradient><filter id="filter3871" color-interpolation-filters="sRGB"><feGaussianBlur id="feGaussianBlur3873" stdDeviation="2.934"/></filter><filter id="filter3913" color-interpolation-filters="sRGB"><feGaussianBlur id="feGaussianBlur3915" stdDeviation=".753"/></filter><linearGradient id="linearGradient3925" x1="209.005" x2="200.967" y1="-22.632" y2="-2.039" gradientTransform="matrix(2.2092365,0,0,2.2092365,-68.579768,91.189025)" gradientUnits="userSpaceOnUse" xlink:href="#linearGradient3919"/><linearGradient id="linearGradient4689-6"><stop id="stop4691-3" offset="0" stop-color="#5a9fd4" stop-opacity="1"/><stop id="stop4693-8" offset="1" stop-color="#306998" stop-opacity="1"/></linearGradient><linearGradient id="linearGradient3314" x1="116.743" x2="190.064" y1="62.911" y2="149.744" gradientTransform="matrix(2.181239,0,0,2.181239,-111.61182,113.06547)" gradientUnits="userSpaceOnUse" xlink:href="#linearGradient4328"/><linearGradient id="linearGradient3316" x1="116.743" x2="190.064" y1="62.911" y2="149.744" gradientTransform="matrix(2.181239,0,0,2.181239,-81.398128,113.06547)" gradientUnits="userSpaceOnUse" xlink:href="#linearGradient4328"/></defs><path id="path3077" fill="#666" fill-opacity=".99" stroke="#7d7d7d" stroke-dasharray="none" stroke-dashoffset="0" stroke-linecap="round" stroke-miterlimit="4" stroke-opacity="1" stroke-width="1.085" d="m 20,279.27442 88.35063,0 c 33.9881,0 77.49135,12.81451 77.49135,29.1526 L 185.84198,492 20,492 Z" filter="url(#filter3871)" transform="matrix(2.2092365,0,0,2.2092365,35.81527,-594.94434)"/><path id="path4338" fill="#fff" fill-opacity=".99" stroke="#7d7d7d" stroke-dasharray="none" stroke-dashoffset="0" stroke-linecap="round" stroke-miterlimit="4" stroke-opacity="1" stroke-width="2" d="m 79.999519,21.999517 194.983301,0 c 61.89823,0 171.01766,39.636924 171.01766,64.410449 l 0,405.590514 -366.000961,0 z"/><path id="path3875" fill="#fff" stroke="#7d7d7d" stroke-dasharray="none" stroke-linecap="round" stroke-linejoin="bevel" stroke-miterlimit="4" stroke-opacity="1" stroke-width="1.085" d="m 172.44062,-29.205599 c 12.43851,5.333061 24.39875,11.169395 29.07043,28.60434895 8.5133,-4.59641195 30.96516,-11.88953595 31.36664,-1.19791745" filter="url(#filter3913)" transform="matrix(2.2092365,0,0,2.2092365,-68.579768,91.189025)"/><path id="path4384" fill="url(#linearGradient3925)" fill-opacity="1" stroke="#7d7d7d" stroke-dasharray="none" stroke-linecap="round" stroke-linejoin="bevel" stroke-miterlimit="4" stroke-opacity="1" stroke-width="2" d="m 274.98635,21.999991 c 32.90208,0 87.16499,12.824171 101.61943,66.768899 18.80789,-10.154561 68.40936,-26.266797 69.29632,-2.646483 0,-40.095253 -127.94367,-64.122416 -170.91575,-64.122416 z"/><path id="path3277" fill="url(#linearGradient3316)" fill-opacity="1" stroke="#000" stroke-dasharray="none" stroke-miterlimit="4" stroke-opacity="1" stroke-width="1.3" d="m 100.80974,242.18906 38.36437,0 93.3721,176.16579 0,-176.16579 27.64492,0 0,210.58088 -38.36437,0 -93.3721,-176.16579 0,176.16579 -27.64492,0 0,-210.58088" font-family="Droid Sans" font-size="267.697" font-stretch="normal" font-style="normal" font-variant="normal" font-weight="normal" letter-spacing="0" word-spacing="0" style="line-height:125%;-inkscape-font-specification:'Droid Sans'"/><path id="path3279" fill="url(#linearGradient3314)" fill-opacity="1" stroke="#000" stroke-dasharray="none" stroke-miterlimit="4" stroke-opacity="1" stroke-width="1.3" d="m 398.94991,373.92553 c -1.4e-4,-19.08806 -3.94941,-34.03886 -11.84782,-44.85247 -7.80464,-10.90738 -18.57109,-16.36113 -32.29942,-16.36127 -13.7285,1.4e-4 -24.54197,5.45389 -32.44045,16.36127 -7.80458,10.81361 -11.70683,25.76441 -11.70677,44.85247 -6e-5,19.08821 3.90219,34.08603 11.70677,44.9935 7.89848,10.81351 18.71195,16.22025 32.44045,16.22023 13.72833,2e-5 24.49478,-5.40672 32.29942,-16.22023 7.89841,-10.90747 11.84768,-25.90529 11.84782,-44.9935 m -88.29446,-55.14879 c 5.4537,-9.40288 12.3179,-16.36112 20.59263,-20.87472 8.36862,-4.60733 18.33583,-6.91107 29.90165,-6.91123 19.18205,1.6e-4 34.74406,7.61661 46.68605,22.84936 12.03572,15.23304 18.05365,35.26148 18.05382,60.08538 -1.7e-4,24.82405 -6.0181,44.85249 -18.05382,60.08537 -11.94199,15.23291 -27.504,22.84936 -46.68605,22.84936 -11.56582,0 -21.53303,-2.25672 -29.90165,-6.77017 -8.27473,-4.60748 -15.13893,-11.61273 -20.59263,-21.01578 l 0,23.69563 -26.09342,0 0,-219.46675 26.09342,0 0,85.47355" font-family="Droid Sans" font-size="267.697" font-stretch="normal" font-style="normal" font-variant="normal" font-weight="normal" letter-spacing="0" word-spacing="0" style="line-height:125%;-inkscape-font-specification:'Droid Sans'"/><text id="text4334" x="99.893" y="164.019" fill="#4d4d4d" fill-opacity="1" stroke="none" stroke-linecap="butt" stroke-linejoin="miter" stroke-opacity="1" stroke-width="1" font-family="Myriad Pro" font-size="106.891" font-stretch="normal" font-style="normal" font-variant="normal" font-weight="normal" letter-spacing="0" word-spacing="0" xml:space="preserve" style="line-height:125%;-inkscape-font-specification:'Myriad Pro'"><tspan id="tspan4336" x="99.893" y="164.019">Jupyter</tspan></text></svg>